<svg xmlns="http://www.w3.org/2000/svg" width="25" height="25" viewBox="0 0 25 25" fill="none"><path d="M10.4026 10.5H9.35677C9.17996 10.5 9.01039 10.5702 8.88537 10.6953C8.76034 10.8203 8.6901 10.9899 8.6901 11.1667V12.5C8.6901 12.6768 8.76034 12.8464 8.88537 12.9714C9.01039 13.0964 9.17996 13.1667 9.35677 13.1667H10.0234V13.3954C10.0234 15.2288 9.85094 17.0038 9.02344 18.5H16.3568C15.528 17.0038 15.3568 15.2288 15.3568 13.3954V13.1667H16.0234C16.2002 13.1667 16.3698 13.0964 16.4948 12.9714C16.6199 12.8464 16.6901 12.6768 16.6901 12.5V11.1667C16.6901 10.9899 16.6199 10.8203 16.4948 10.6953C16.3698 10.5702 16.2002 10.5 16.0234 10.5H14.9776C16.2022 9.73417 17.0234 8.38417 17.0234 6.83333C17.0234 5.68406 16.5669 4.58186 15.7542 3.7692C14.9416 2.95655 13.8394 2.5 12.6901 2.5C11.5408 2.5 10.4386 2.95655 9.62597 3.7692C8.81332 4.58186 8.35677 5.68406 8.35677 6.83333C8.35677 8.38417 9.17802 9.73417 10.4026 10.5ZM18.6901 19.8333H6.6901C6.51329 19.8333 6.34372 19.9036 6.2187 20.0286C6.09368 20.1536 6.02344 20.3232 6.02344 20.5V21.8333C6.02344 22.0101 6.09368 22.1797 6.2187 22.3047C6.34372 22.4298 6.51329 22.5 6.6901 22.5H18.6901C18.8669 22.5 19.0365 22.4298 19.1615 22.3047C19.2865 22.1797 19.3568 22.0101 19.3568 21.8333V20.5C19.3568 20.3232 19.2865 20.1536 19.1615 20.0286C19.0365 19.9036 18.8669 19.8333 18.6901 19.8333Z" fill="url(#paint0_linear_17_55)"></path><defs><linearGradient id="paint0_linear_17_55" x1="19.3568" y1="12.5" x2="4.35677" y2="7.5" gradientUnits="userSpaceOnUse"><stop stop-color="#B59122"></stop><stop offset="1" stop-color="#EEB609"></stop></linearGradient></defs></svg>